<?xml version="1.0" encoding="UTF-8"?>
<svg xmlns="http://www.w3.org/2000/svg" width="128" height="128" viewBox="0 0 128 128">
  <defs>
    <linearGradient id="g" x1="0%" y1="0%" x2="100%" y2="100%">
      <stop offset="0%" style="stop-color:#5eb3e8"/>
      <stop offset="100%" style="stop-color:#1565c0"/>
    </linearGradient>
  </defs>
  <rect width="128" height="128" rx="24" fill="url(#g)"/>
  <path fill="#fff" fill-opacity="0.95" d="M64 28c-18 0-32 14-32 32 0 8 3 15 8 20l8-8c-3-4-5-8-5-12 0-11 9-20 20-20 5 0 10 2 14 5l8-8c-6-5-13-9-21-9zm24 16l-8 8c4 3 7 8 7 14 0 11-9 20-20 20-6 0-11-3-15-7l-8 8c6 6 14 10 23 10 18 0 32-14 32-32 0-9-4-17-11-23z"/>
  <text x="64" y="100" text-anchor="middle" fill="#fff" font-family="sans-serif" font-size="14" font-weight="600">G</text>
</svg>
